#!OML:ASF F:\VICON\USERDATA\INSTALL\rory3\rory3.ASF
:FULLY-SPECIFIED
:DEGREES
2225
root 0.686103 15.5654 -1.94792 0.278598 15.3922 1.766
lowerback 28.8021 0.704132 11.7963
upperback 13.7282 4.76054 14.5583
thorax -0.51721 2.48981 7.85021
lowerneck 2.72743 -12.2704 -16.8533
upperneck -8.91527 -16.5009 13.191
head -0.566123 -8.27251 6.48023
rclavicle -1.90833e-014 2.22639e-014
rhumerus -7.36191 40.6253 -53.2143
rradius 38.5878
rwrist -13.1065
rhand -8.71504 11.6046
rfingers 7.12502
rthumb 17.2207 -17.6523
lclavicle -1.90833e-014 2.22639e-014
lhumerus -57.8099 -47.2258 44.2002
lradius 145.836
lwrist 83.6335
lhand 16.2543 36.2146
lfingers 7.12502
lthumb 41.031 61.1211
rfemur -16.8939 -2.84664 11.0683
rtibia 38.8327
rfoot -16.4502 -11.6462
rtoes -10.4469
lfemur -21.5817 -11.814 -20.1613
ltibia 33.5449
lfoot -5.63843 -7.15094
ltoes -4.59321
2226
root 0.667732 15.6177 -1.9116 0.454024 15.2707 1.86865
lowerback 28.1952 0.830694 11.3892
upperback 13.6507 4.69174 14.2603
thorax -0.359635 2.45529 7.7656
lowerneck 2.80238 -12.2552 -17.0315
upperneck -8.41599 -16.5158 13.2293
head -0.411143 -8.28292 6.49545
rclavicle -6.04305e-014 -4.77083e-014
rhumerus -8.79041 42.3128 -54.2619
rradius 39.8521
rwrist -14.0385
rhand -8.47418 11.3389
rfingers 7.12502
rthumb 17.4525 -17.8976
lclavicle -6.04305e-014 -4.77083e-014
lhumerus -57.2932 -46.9283 44.1117
lradius 145.578
lwrist 83.2464
lhand 16.8852 36.1279
lfingers 7.12502
lthumb 41.6231 60.8429
rfemur -16.2443 -2.08347 11.1319
rtibia 37.5316
rfoot -16.1834 -12.1572
rtoes -9.41262
lfemur -20.8282 -11.8662 -20.1434
ltibia 32.1531
lfoot -5.19966 -6.85386
ltoes -4.45918
2227
root 0.650724 15.6673 -1.87534 0.572929 15.2118 1.75442
lowerback 27.4256 0.904668 11.1534
upperback 13.5367 4.61087 13.7585
thorax -0.0947638 2.42213 7.86336
lowerneck 3.09575 -12.2254 -17.1522
upperneck -8.08316 -16.5366 13.2677
head -0.343369 -8.30159 6.52687
rclavicle -1.90833e-014 -8.26944e-014
rhumerus -10.3175 43.8114 -55.4537
rradius 40.9695
rwrist -14.909
rhand -8.34236 11.112
rfingers 7.12502
rthumb 17.5794 -18.1132
lclavicle -1.90833e-014 -8.26944e-014
lhumerus -56.8226 -46.6452 44.0588
lradius 145.378
lwrist 83.0565
lhand 17.2255 36.0117
lfingers 7.12502
lthumb 41.9422 60.621
rfemur -15.5739 -1.32736 11.4203
rtibia 36.2521
rfoot -16.0011 -12.6954
rtoes -8.42464
lfemur -20.0705 -12.0065 -19.9023
ltibia 30.6986
lfoot -4.75189 -6.54908
ltoes -4.62284
2228
root 0.632871 15.7173 -1.83603 0.684008 15.1723 1.63622
lowerback 26.8051 0.920796 10.9809
upperback 13.3905 4.47365 13.4406
thorax 0.0409573 2.36031 7.62333
lowerneck 3.51676 -12.1556 -16.9961
upperneck -7.92096 -16.5122 13.101
head -0.394915 -8.29891 6.48242
rclavicle 2.22639e-014 1.90833e-014
rhumerus -11.8565 45.0321 -56.768
rradius 41.9315
rwrist -15.7389
rhand -8.0673 10.9705
rfingers 7.12502
rthumb 17.8441 -18.2309
lclavicle 2.22639e-014 1.90833e-014
lhumerus -56.6264 -46.3543 44.2056
lradius 145.31
lwrist 83.0468
lhand 17.2372 36.0386
lfingers 7.12502
lthumb 41.9532 60.6443
rfemur -14.8664 -0.557911 11.7342
rtibia 34.9575
rfoot -15.8089 -13.357
rtoes -7.67931
lfemur -19.2815 -12.154 -19.646
ltibia 29.2391
lfoot -4.32816 -6.25998
ltoes -4.77941
2229
root 0.61542 15.7674 -1.79558 0.862041 15.072 1.60822
lowerback 26.1106 0.978565 10.6596
upperback 13.2636 4.34223 13.1151
thorax 0.221554 2.29589 7.45971
lowerneck 3.62034 -12.0452 -16.8219
upperneck -7.45997 -16.3957 12.8768
head -0.32811 -8.24368 6.38791
rclavicle -6.36111e-014 -2.8625e-014
rhumerus -13.3553 46.1808 -58.05
rradius 42.7333
rwrist -16.6623
rhand -7.8449 11.001
rfingers 7.12502
rthumb 18.0581 -18.1807
lclavicle -6.36111e-014 -2.8625e-014
lhumerus -56.6005 -46.0108 44.6739
lradius 145.16
lwrist 83.0215
lhand 17.3817 35.8125
lfingers 7.12502
lthumb 42.0886 60.3728
rfemur -14.1977 0.301793 11.9606
rtibia 33.6321
rfoot -15.5675 -14.0996
rtoes -6.83343
lfemur -18.5232 -12.2658 -19.4784
ltibia 27.7891
lfoot -3.93355 -5.8845
ltoes -4.29303
2230
root 0.598066 15.8157 -1.75285 1.02469 14.9378 1.54105
lowerback 25.4439 0.891564 10.1552
upperback 13.0979 4.01111 12.8882
thorax 0.338514 2.11729 7.56563
lowerneck 3.78605 -11.7048 -17.3067
upperneck -6.83629 -16.0184 12.7916
head -0.196312 -8.05084 6.4394
rclavicle -3.49861e-014 -5.08889e-014
rhumerus -14.7234 48.3008 -58.9973
rradius 43.7125
rwrist -17.8538
rhand -7.88073 10.5837
rfingers 7.12502
rthumb 18.0236 -18.6012
lclavicle -3.49861e-014 -5.08889e-014
lhumerus -57.8139 -45.3312 46.1016
lradius 145.154
lwrist 82.7788
lhand 17.81 35.7557
lfingers 7.12502
lthumb 42.4898 60.1795
rfemur -13.5181 1.17567 12.2283
rtibia 32.302
rfoot -15.2466 -14.8562
rtoes -6.35558
lfemur -17.7272 -12.438 -19.273
ltibia 26.3223
lfoot -3.62167 -5.35747
ltoes -3.29384
2231
root 0.579553 15.8616 -1.70909 1.18574 14.8093 1.43644
lowerback 24.7725 0.664784 9.46895
upperback 12.9345 3.47418 12.733
thorax 0.465725 1.8238 7.91011
lowerneck 4.18454 -11.202 -18.3454
upperneck -6.44533 -15.4787 12.9597
head -0.131823 -7.7776 6.68137
rclavicle 6.36111e-015 6.67916e-014
rhumerus -15.7646 51.0446 -59.6088
rradius 44.7638
rwrist -19.0539
rhand -7.46602 10.0257
rfingers 7.12502
rthumb 18.4226 -19.1219
lclavicle 6.36111e-015 6.67916e-014
lhumerus -59.836 -44.2534 48.0802
lradius 145.194
lwrist 82.3703
lhand 18.5943 35.9805
lfingers 7.12502
lthumb 43.2234 60.1471
rfemur -12.8569 2.01708 12.5346
rtibia 30.9902
rfoot -14.9303 -15.5938
rtoes -5.6985
lfemur -16.9419 -12.7157 -19.0104
ltibia 24.8727
lfoot -3.38672 -4.81738
ltoes -2.76086
2232
root 0.560072 15.9047 -1.66571 1.35423 14.6877 1.29205
lowerback 24.0142 0.517975 8.97557
upperback 12.8132 3.06005 12.4941
thorax 0.702863 1.60414 8.01512
lowerneck 4.47977 -10.8383 -19.0066
upperneck -6.11112 -15.0869 13.1723
head -0.0736478 -7.58625 6.87096
rclavicle -5.40694e-014 -9.54166e-015
rhumerus -16.992 53.003 -60.467
rradius 45.6321
rwrist -19.8671
rhand -6.95444 10.2585
rfingers 7.12502
rthumb 18.9146 -18.8419
lclavicle -5.40694e-014 -9.54166e-015
lhumerus -60.8083 -43.3241 49.2872
lradius 145.05
lwrist 82.2081
lhand 19.1324 36.2124
lfingers 7.12502
lthumb 43.726 60.1967
rfemur -12.2485 2.85328 12.8866
rtibia 29.7155
rfoot -14.6394 -16.3652
rtoes -5.26033
lfemur -16.2054 -12.955 -18.7102
ltibia 23.4423
lfoot -3.11718 -4.29138
ltoes -3.07339
2233
root 0.541173 15.9437 -1.62186 1.58883 14.5889 1.22022
lowerback 23.1629 0.438332 8.59962
upperback 12.7018 2.74096 12.1476
thorax 1.00568 1.44166 7.90177
lowerneck 4.52508 -10.6089 -19.2115
upperneck -5.60824 -14.817 13.2003
head 0.0417196 -7.45687 6.9098
rclavicle -6.67916e-014 -5.08889e-014
rhumerus -18.4586 54.2614 -61.5578
rradius 46.4947
rwrist -20.4354
rhand -6.79536 10.7792
rfingers 7.12502
rthumb 19.0676 -18.3061
lclavicle -6.67916e-014 -5.08889e-014
lhumerus -61.0628 -42.5431 50.0216
lradius 144.853
lwrist 82.2511
lhand 19.3507 36.5335
lfingers 7.12502
lthumb 43.9297 60.4425
rfemur -11.7111 3.63263 13.1427
rtibia 28.4907
rfoot -14.4873 -17.0449
rtoes -4.54503
lfemur -15.5312 -13.1757 -18.4915
ltibia 22.0166
lfoot -2.82764 -3.79621
ltoes -3.46184
2234
root 0.522054 15.9804 -1.57541 1.8277 14.4389 1.18689
lowerback 22.2857 0.415568 8.18023
upperback 12.6028 2.48829 11.7729
thorax 1.33155 1.31061 7.76389
lowerneck 4.59255 -10.4101 -19.2871
upperneck -5.16766 -14.5818 13.2382
head 0.132035 -7.34735 6.93562
rclavicle -4.45278e-014 -6.04305e-014
rhumerus -20.0822 55.2357 -62.6768
rradius 47.4937
rwrist -20.9571
rhand -6.61655 10.8345
rfingers 7.12502
rthumb 19.2396 -18.2338
lclavicle -4.45278e-014 -6.04305e-014
lhumerus -61.1762 -41.8842 50.7346
lradius 144.62
lwrist 82.3602
lhand 19.3494 36.5447
lfingers 7.12502
lthumb 43.9285 60.4542
rfemur -11.1967 4.3706 13.345
rtibia 27.3183
rfoot -14.5564 -17.5694
rtoes -2.98564
lfemur -14.8218 -13.3705 -18.3217
ltibia 20.5977
lfoot -2.55889 -3.30578
ltoes -4.49156
2235
root 0.501035 16.0149 -1.52915 2.01901 14.2673 1.15761
lowerback 21.4901 0.453876 7.79747
upperback 12.4964 2.34262 11.3506
thorax 1.60608 1.23557 7.52608
lowerneck 4.69528 -10.2528 -19.1415
upperneck -4.82165 -14.3902 13.3368
head 0.18567 -7.26397 6.95161
rclavicle 7.63333e-014 1.04958e-013
rhumerus -21.9295 55.8939 -63.9334
rradius 48.5486
rwrist -21.3585
rhand -6.41426 10.7307
rfingers 7.12502
rthumb 19.4341 -18.3181
lclavicle 7.63333e-014 1.04958e-013
lhumerus -61.0372 -41.4822 51.2779
lradius 144.329
lwrist 82.4369
lhand 19.3933 36.2376
lfingers 7.12502
lthumb 43.9695 60.1319
rfemur -10.6608 5.0141 13.5511
rtibia 26.1905
rfoot -14.4608 -18.0507
rtoes -2.25769
lfemur -14.0571 -13.4802 -18.1511
ltibia 19.1794
lfoot -2.25899 -2.91104
ltoes -4.96619
2236
root 0.479927 16.0448 -1.48273 2.22598 14.0459 1.16778
lowerback 20.6239 0.476409 7.35184
upperback 12.4279 2.15947 10.8841
thorax 1.96295 1.13974 7.28629
lowerneck 4.64542 -10.0734 -19.0257
upperneck -4.34793 -14.1493 13.4868
head 0.299485 -7.15416 6.97661
rclavicle -1.59028e-015 2.22639e-014
rhumerus -23.6472 56.4951 -65.0846
rradius 49.611
rwrist -21.7013
rhand -6.0869 10.6441
rfingers 7.12502
rthumb 19.7488 -18.3727
lclavicle -1.59028e-015 2.22639e-014
lhumerus -60.7238 -40.8787 51.5109
lradius 144.051
lwrist 82.9451
lhand 19.6016 36.4701
lfingers 7.12502
lthumb 44.1637 60.2917
rfemur -10.1672 5.68873 13.7018
rtibia 25.1096
rfoot -14.2489 -18.5683
rtoes -1.81898
lfemur -13.2846 -13.628 -18.0105
ltibia 17.7605
lfoot -2.01623 -2.446
ltoes -5.59589
2237
root 0.459346 16.0726 -1.43601 2.41812 13.8308 1.13237
lowerback 19.805 0.586912 7.12845
upperback 12.3175 2.14625 10.3173
thorax 2.25121 1.14427 6.77476
lowerneck 4.65344 -10.0444 -18.4443
upperneck -3.91619 -14.0923 13.5908
head 0.385436 -7.14114 6.91336
rclavicle 7.31528e-014 1.24042e-013
rhumerus -25.7127 56.3311 -66.5827
rradius 50.6341
rwrist -21.8615
rhand -5.60893 10.6457
rfingers 7.12502
rthumb 20.2083 -18.3232
lclavicle 7.31528e-014 1.24042e-013
lhumerus -59.7361 -40.5842 51.1145
lradius 143.77
lwrist 83.9544
lhand 19.7689 37.4366
lfingers 7.12502
lthumb 44.3198 61.1992
rfemur -9.69583 6.33862 13.8822
rtibia 24.0843
rfoot -14.1468 -18.9997
rtoes -1.00009
lfemur -12.519 -13.8162 -17.8225
ltibia 16.3529
lfoot -1.73306 -1.91207
ltoes -5.45855
2238
root 0.437657 16.0968 -1.39178 2.59833 13.6443 1.09737
lowerback 19.2356 0.800756 7.13141
upperback 12.0527 2.35666 9.60243
thorax 2.24414 1.27579 5.92687
lowerneck 4.89657 -10.1425 -17.3826
upperneck -3.56828 -14.2096 13.7059
head 0.403656 -7.22443 6.78999
rclavicle -2.38542e-014 -2.54444e-014
rhumerus -28.3591 55.5064 -68.6026
rradius 51.684
rwrist -21.9733
rhand -5.12895 10.4874
rfingers 7.12502
rthumb 20.6695 -18.432
lclavicle -2.38542e-014 -2.54444e-014
lhumerus -58.4116 -40.979 50.4126
lradius 143.509
lwrist 84.8264
lhand 19.7921 38.0976
lfingers 7.12502
lthumb 44.3414 61.852
rfemur -9.23777 6.87285 14.0645
rtibia 23.0915
rfoot -13.9726 -19.3293
rtoes -0.392094
lfemur -11.8001 -13.9258 -17.6377
ltibia 14.9927
lfoot -1.40738 -1.51082
ltoes -5.38629
2239
root 0.415603 16.1191 -1.34883 2.73563 13.3889 1.10255
lowerback 18.822 0.901268 6.93189
upperback 11.7334 2.41954 8.94294
thorax 2.10171 1.31616 5.28779
lowerneck 5.07547 -10.0596 -16.8012
upperneck -2.9689 -14.1162 13.8422
head 0.506722 -7.19519 6.74365
rclavicle 2.70347e-014 4.13472e-014
rhumerus -30.7979 55.2799 -70.3374
rradius 52.7435
rwrist -22.1226
rhand -4.68926 10.2454
rfingers 7.12502
rthumb 21.092 -18.6274
lclavicle 2.70347e-014 4.13472e-014
lhumerus -58.18 -41.1827 50.5197
lradius 143.366
lwrist 85.2215
lhand 19.7939 38.6683
lfingers 7.12502
lthumb 44.3431 62.4221
rfemur -8.75362 7.36229 14.1926
rtibia 22.118
rfoot -13.819 -19.5098
rtoes 0.268388
lfemur -11.0388 -14.0275 -17.5038
ltibia 13.6763
lfoot -1.17222 -1.09953
ltoes -5.6223
